<!DOCTYPE svg PUBLIC "-//W3C//DTD SVG 20010904//EN" "http://www.w3.org/TR/2001/REC-SVG-20010904/DTD/svg10.dtd">
<svg version="1.0" xmlns="http://www.w3.org/2000/svg" width="21px" height="19px" viewBox="0 0 210 190" preserveAspectRatio="xMidYMid meet">
<g id="layer101" fill="#ff5656" stroke="none">
 <path d="M20 168 c-31 -34 -28 -104 7 -140 23 -24 35 -28 81 -28 47 0 58 4 78 28 32 36 33 108 4 140 -17 18 -32 22 -85 22 -53 0 -68 -4 -85 -22z m124 1 c29 -14 50 -59 41 -89 -6 -19 -10 -15 -38 31 -18 29 -36 54 -42 56 -10 3 -55 -59 -55 -77 0 -18 25 -11 38 11 13 21 15 20 43 -22 l29 -44 -31 -9 c-38 -12 -76 6 -98 45 -12 22 -12 32 -2 56 19 47 66 64 115 42z"/>
 </g>

</svg>